# xmcd CD database file
#
# Track frame offsets:
#	150
#	10986
#	25567
#	37150
#	53264
#	69833
#	81698
#	96361
#	109437
#	143323
#	157537
#	196377
#	199708
#	210950
#	225923
#	237583
#
# Disc length: 3368 seconds
#
# Revision: 0
# Processed by: cddbd v1.5.2PL0 Copyright (c) Steve Scherf et al.
# Submitted via: CDex 1.51
#
DISCID=c20d2610
DTITLE=Benny Goodman - Hit Collection 
DYEAR=2002
DGENRE=Jazz
TTITLE0=Stompin' At The Savoy 
TTITLE1=King Porter Stomp 
TTITLE2=Bugle Call Rag 
TTITLE3=I Found A New Baby 
TTITLE4=Sometimes I'm Happy 
TTITLE5=I Want To Be Happy 
TTITLE6=Smoke Gets In Your Eyes 
TTITLE7=I'm Always Chasing Rainbows 
TTITLE8=One O'clock Jump 
TTITLE9=Jumpin' at the woodside 
TTITLE10=How High The Moon 
TTITLE11=Let's Dance 
TTITLE12=Goody Goody 
TTITLE13=Don't Be That Way 
TTITLE14=Lazy River 
TTITLE15=Tiger Rag 
EXTD=YEAR: 2002
EXTT0=
EXTT1=
EXTT2=
EXTT3=
EXTT4=
EXTT5=
EXTT6=
EXTT7=
EXTT8=
EXTT9=
EXTT10=
EXTT11=
EXTT12=
EXTT13=
EXTT14=
EXTT15=
PLAYORDER=
